<svg version="1.1" id="Layer_1" xmlns="http://www.w3.org/2000/svg" xmlns:xlink="http://www.w3.org/1999/xlink" x="0px" y="0px"
	 width="100%" viewBox="0 0 2002 522" enable-background="new 0 0 2002 522" xml:space="preserve">
<path fill="#FFFFFF" opacity="1.000000" stroke="none" 
	d="
M2003.000000,150.000000 
	C2003.000000,274.273315 2003.000000,398.546631 2003.000000,523.000000 
	C1840.305298,523.000000 1677.610596,523.000000 1514.630615,522.630676 
	C1517.691772,521.589111 1521.101562,521.139954 1524.374634,520.209717 
	C1554.726318,511.583557 1572.036499,482.018951 1572.831787,453.467255 
	C1573.606201,425.669617 1573.150391,397.832275 1572.908569,370.015198 
	C1572.835938,361.659302 1572.251343,353.217712 1570.898926,344.979950 
	C1566.705933,319.439392 1549.200195,303.675232 1526.569824,296.233002 
	C1509.357910,290.572662 1491.416382,291.392578 1473.735229,295.040436 
	C1459.698730,297.936401 1448.189819,304.761383 1439.626709,316.658844 
	C1427.756470,333.151581 1423.691162,352.038361 1423.290405,371.601929 
	C1423.047974,383.435272 1424.879761,395.484833 1427.208862,407.151947 
	C1429.955200,420.909912 1437.615234,432.580505 1447.791016,442.016083 
	C1457.605347,451.116333 1469.210449,456.861115 1483.086792,458.316406 
	C1493.198608,459.376892 1502.579468,458.239624 1511.810791,454.593811 
	C1520.051636,451.339172 1526.073120,445.174622 1532.215088,438.575500 
	C1531.282593,447.602753 1531.063354,456.958160 1527.671143,464.970245 
	C1518.707275,486.142548 1497.479126,492.999634 1478.639526,479.117706 
	C1473.395508,469.765869 1464.542725,470.730896 1455.814941,470.954132 
	C1447.491333,471.167023 1439.157959,470.987793 1430.828857,471.013519 
	C1429.607666,471.017273 1428.387085,471.201660 1427.022461,471.314331 
	C1427.442261,472.688019 1427.697021,473.614258 1428.006592,474.521790 
	C1435.322876,495.974854 1448.387085,511.973785 1470.739136,518.836426 
	C1476.691162,520.663818 1482.905884,521.635437 1489.000000,523.000000 
	C993.117676,523.000000 497.235321,523.000000 1.000000,523.000000 
	C1.000000,434.638947 1.000000,346.277405 1.395057,257.646545 
	C2.523546,266.884674 2.972191,276.424652 4.051520,285.892700 
	C6.104167,303.898895 11.709135,320.955048 18.917461,337.492737 
	C29.661140,362.141479 45.159187,383.662842 63.661343,402.937347 
	C72.418114,412.059692 81.950798,420.613220 92.002724,428.283295 
	C122.120125,451.264252 155.299744,468.689301 191.136703,481.078583 
	C226.254242,493.219116 262.207275,501.494781 299.220062,504.995636 
	C314.249542,506.417206 329.287354,508.662781 344.334625,508.776581 
	C368.348083,508.958221 392.406128,508.236603 416.381042,506.813446 
	C433.150604,505.818054 449.833862,503.174957 466.517975,500.980774 
	C489.396271,497.971954 511.601379,492.013153 533.578674,485.123993 
	C557.590088,477.597198 580.632690,467.861511 602.733643,455.781006 
	C622.526550,444.962128 641.228699,432.495697 657.864380,417.376373 
	C675.765869,401.106628 691.850220,383.204254 704.573364,362.242950 
	C722.586792,332.565887 732.848633,300.591919 734.740051,266.188446 
	C735.615845,250.257263 733.943420,234.154236 732.931885,218.160385 
	C731.989868,203.266617 727.022278,189.281143 721.190857,175.738327 
	C706.203552,140.931885 682.319214,112.793808 652.800842,89.729675 
	C636.762695,77.198357 619.270996,66.308853 601.585205,56.159554 
	C578.806030,43.087418 554.377563,33.496574 529.273438,25.556479 
	C499.945007,16.280264 470.196655,9.167889 439.581879,6.035979 
	C423.578308,4.398800 407.515869,3.339557 391.484528,1.966111 
	C390.304108,1.864981 389.160645,1.332140 388.000000,1.000002 
	C926.333313,1.000000 1464.666626,1.000000 2003.000000,1.000000 
	C2003.000000,48.439785 2003.000000,95.761948 2002.606445,143.358780 
	C2002.079102,127.001503 1997.892700,111.582939 1989.114624,97.328583 
	C1982.931152,87.287636 1975.545410,78.661201 1965.028687,72.996658 
	C1946.238037,62.875675 1925.995361,61.380749 1905.475830,64.171288 
	C1880.565918,67.558884 1862.169312,80.916351 1851.125610,103.668327 
	C1843.701660,118.962860 1841.114746,135.155563 1841.801270,152.243286 
	C1842.444458,168.249573 1846.172485,183.008057 1854.300415,196.739151 
	C1867.269043,218.648163 1887.171875,229.118240 1911.898438,230.844955 
	C1920.913330,231.474472 1930.094482,230.771881 1939.123779,229.894928 
	C1951.979858,228.646362 1963.954346,224.088135 1973.658936,215.621643 
	C1992.195679,199.449432 2001.400757,178.598083 2002.038696,153.975204 
	C2002.073120,152.642715 2002.666748,151.324738 2003.000000,150.000000 
M1039.609863,228.000000 
	C1050.693970,228.000000 1061.778076,228.000000 1073.000000,228.000000 
	C1073.000000,209.957947 1073.130005,192.632919 1072.963501,175.310745 
	C1072.796021,157.884811 1072.567993,140.453110 1071.931030,123.039871 
	C1071.356567,107.335686 1065.674072,93.207481 1054.528198,82.302956 
	C1035.995361,64.171501 1013.411560,60.326385 988.779419,66.679115 
	C977.397766,69.614487 968.190979,76.148064 960.448059,85.216438 
	C949.538635,72.255836 935.664062,65.481598 919.454529,64.117828 
	C902.185059,62.664875 885.863831,66.268188 871.898987,77.077827 
	C856.433044,89.049530 847.731079,105.334511 847.233032,124.636208 
	C846.386353,157.445297 847.000000,190.292068 847.000000,223.123016 
	C847.000000,224.704208 847.000000,226.285400 847.000000,227.781754 
	C860.010254,227.781754 872.289062,227.781754 885.000000,227.781754 
	C885.000000,225.782562 885.000000,223.994278 885.000000,222.205994 
	C885.000000,192.541489 884.908752,162.876572 885.046631,133.212708 
	C885.098938,121.947083 889.257507,112.779297 899.551941,106.898987 
	C907.362366,102.437660 925.982910,102.700371 932.474670,110.736679 
	C937.109680,116.474472 939.943054,122.539368 939.963318,129.774185 
	C940.049622,160.605026 940.000000,191.436234 940.000000,222.267319 
	C940.000000,224.049988 940.000000,225.832672 940.000000,227.730774 
	C953.209656,227.730774 965.939148,227.730774 979.000000,227.730774 
	C979.000000,225.664169 979.000000,223.863007 979.000000,222.061829 
	C979.000000,191.730713 978.490845,161.388077 979.176147,131.072449 
	C979.645935,110.291206 996.082031,100.465538 1015.093079,104.725243 
	C1027.558105,107.518196 1033.539917,116.467361 1033.817871,130.560638 
	C1034.412598,160.713379 1034.000000,190.885986 1034.000000,221.050446 
	C1034.000000,223.185745 1034.000000,225.321045 1034.000000,227.770859 
	C1035.738403,227.856766 1037.187378,227.928375 1039.609863,228.000000 
M1150.906006,440.536407 
	C1153.985596,443.700226 1156.705322,447.350342 1160.208252,449.942139 
	C1173.999634,460.146698 1189.948242,461.784698 1206.036255,458.745605 
	C1229.060791,454.396210 1243.314087,439.129028 1252.041382,418.085297 
	C1258.345581,402.884369 1259.359131,386.973541 1259.109741,370.730743 
	C1258.861084,354.529144 1255.347656,339.501984 1247.174805,325.385345 
	C1238.975586,311.223114 1226.964844,302.035004 1211.749390,297.132202 
	C1194.002930,291.413940 1175.889893,291.699341 1157.863892,296.033661 
	C1137.591309,300.908173 1122.027954,311.765625 1112.867920,331.166290 
	C1107.755127,341.995239 1106.276367,353.519653 1106.173462,365.015015 
	C1105.756226,411.675964 1105.997803,458.342804 1106.009155,505.007477 
	C1106.009521,506.603210 1106.142822,508.198944 1106.223267,509.999329 
	C1113.842773,509.999329 1121.021851,510.398651 1128.136353,509.890900 
	C1135.782227,509.345215 1142.531372,506.254700 1145.894043,498.863159 
	C1147.599243,495.115082 1148.764160,490.794647 1148.863159,486.701233 
	C1149.213989,472.210358 1148.969971,457.705627 1149.060791,443.206757 
	C1149.067505,442.125397 1149.940918,441.049469 1150.906006,440.536407 
M1766.682251,230.008377 
	C1778.788452,229.633011 1790.073730,226.300934 1800.306885,219.912033 
	C1819.019409,208.228958 1829.295410,190.616577 1829.700684,169.157349 
	C1830.641235,119.341850 1830.000000,69.496483 1830.000000,19.663227 
	C1830.000000,18.220493 1830.000000,16.777760 1830.000000,13.771940 
	C1821.107544,15.281753 1812.693604,15.764590 1804.929565,18.265089 
	C1794.959229,21.476107 1787.684814,30.362797 1787.937988,42.544601 
	C1788.211548,55.705559 1788.008057,68.876617 1787.986328,82.043228 
	C1787.984375,83.232689 1787.791016,84.421829 1787.765137,84.717537 
	C1782.363525,80.222862 1777.304932,74.960381 1771.295044,71.230942 
	C1758.607788,63.357883 1744.447388,63.804909 1730.325684,66.029297 
	C1712.631348,68.816437 1700.334961,79.559937 1690.649170,93.834709 
	C1681.816040,106.852654 1678.208130,121.846565 1677.280396,137.040909 
	C1676.134155,155.816864 1676.037354,174.671112 1684.637573,192.549881 
	C1691.749512,207.335388 1701.299316,219.003784 1717.291504,223.949463 
	C1726.683105,226.853882 1736.310669,229.347443 1746.016357,230.759933 
	C1752.428101,231.693039 1759.167114,230.377884 1766.682251,230.008377 
M1098.048462,195.336380 
	C1102.238159,202.683655 1107.606201,208.889465 1114.432617,214.035538 
	C1137.218140,231.212082 1162.796143,234.791672 1189.973999,229.416367 
	C1206.725098,226.103287 1220.942871,217.842865 1231.425903,204.017349 
	C1235.945068,198.057419 1240.422485,191.965164 1241.498413,184.000000 
	C1227.986084,184.000000 1214.819336,183.843704 1201.662720,184.140335 
	C1199.220215,184.195404 1196.259033,185.505676 1194.510620,187.225952 
	C1190.410889,191.259506 1186.065796,194.486435 1180.216187,194.996735 
	C1174.816528,195.467773 1169.393799,195.953659 1163.981567,195.949966 
	C1144.748413,195.936829 1129.845581,179.215363 1131.394653,159.017349 
	C1169.094238,159.017349 1206.832520,159.017349 1245.422363,159.017349 
	C1244.923706,152.321320 1244.036255,146.118607 1244.094116,139.924713 
	C1244.196411,128.973297 1242.205444,118.516922 1237.977295,108.483376 
	C1231.709229,93.609352 1222.147339,81.628845 1207.620850,73.916283 
	C1186.972778,62.953461 1164.815552,61.980980 1143.097290,67.375114 
	C1109.253784,75.780746 1091.954712,102.536133 1089.118652,134.458359 
	C1088.338379,143.240860 1088.811646,152.156479 1089.046143,161.002090 
	C1089.360474,172.860840 1092.045532,184.167007 1098.048462,195.336380 
M1716.456055,304.971741 
	C1712.005737,302.635376 1707.732544,299.838226 1703.072754,298.046722 
	C1687.458130,292.043427 1671.317261,290.839722 1654.724121,292.913116 
	C1636.998169,295.128052 1621.491577,301.192291 1609.402100,315.003845 
	C1596.664307,329.556183 1589.929321,346.686493 1588.198242,365.527679 
	C1586.657593,382.294800 1588.100830,399.067322 1595.062134,414.789276 
	C1603.442017,433.715240 1615.910522,448.495941 1636.424194,455.179199 
	C1651.556885,460.109375 1666.874878,460.997986 1682.579468,459.058746 
	C1700.129639,456.891571 1715.443115,450.689911 1727.459961,437.122528 
	C1741.790405,420.943268 1747.859253,401.674225 1748.834229,380.649414 
	C1749.196289,372.842621 1748.132324,364.876862 1746.920898,357.107941 
	C1743.644653,336.096558 1733.966675,318.626892 1716.456055,304.971741 
M1603.136353,98.005051 
	C1607.603882,99.311729 1612.163452,100.369789 1616.518799,101.979919 
	C1624.171143,104.808975 1626.174438,119.740639 1617.646118,123.689903 
	C1612.593262,126.029808 1607.140137,127.871552 1601.672241,128.876129 
	C1588.717285,131.256119 1575.455933,132.197418 1562.670898,135.213760 
	C1547.338135,138.831192 1534.813354,147.017639 1528.820190,162.647491 
	C1524.933472,172.783524 1524.192139,183.149612 1525.901855,193.920731 
	C1527.691406,205.195511 1532.907471,214.192505 1541.923462,220.951996 
	C1550.942993,227.714157 1561.639893,230.268646 1572.519409,230.832153 
	C1587.155884,231.590210 1601.865723,231.417725 1616.301514,228.002792 
	C1628.115479,225.208084 1639.385132,220.996277 1648.511719,212.825775 
	C1659.534790,202.957367 1664.531494,189.885544 1664.879517,175.395294 
	C1665.359741,155.410370 1665.062500,135.404922 1664.954346,115.409035 
	C1664.928589,110.655815 1664.608521,105.866150 1663.937134,101.162758 
	C1662.731445,92.717903 1659.596313,84.665489 1652.726807,79.629913 
	C1646.569214,75.116119 1639.344116,71.597214 1632.081787,69.142441 
	C1614.070312,63.054111 1595.560303,62.480427 1576.826782,65.910072 
	C1556.702515,69.594383 1541.084473,78.976433 1534.093750,99.163559 
	C1531.823975,105.717712 1530.882568,112.731880 1529.265137,119.836922 
	C1544.001709,119.836922 1557.298218,119.836922 1570.647339,119.836922 
	C1572.308228,111.559784 1574.676758,103.364120 1583.371216,100.510033 
	C1589.286499,98.568245 1595.902832,98.761826 1603.136353,98.005051 
M1378.944092,451.555969 
	C1397.724365,442.284668 1408.128662,427.032410 1408.822632,406.283600 
	C1409.596558,383.144745 1409.340088,359.952698 1408.840210,336.798767 
	C1408.626709,326.906525 1405.587769,317.427277 1397.857056,310.411560 
	C1385.366699,299.076508 1369.685547,295.375031 1353.687744,294.288086 
	C1341.934570,293.489532 1329.799072,294.185913 1318.188599,296.230286 
	C1289.062012,301.358856 1275.783936,321.465668 1274.331055,348.774475 
	C1287.785400,348.774475 1301.228760,348.774475 1312.987183,348.774475 
	C1316.873535,342.662018 1319.039917,335.604767 1323.787354,332.521057 
	C1334.895264,325.306000 1347.582886,326.263519 1359.616577,331.051056 
	C1365.098511,333.231934 1367.258179,338.178345 1367.086060,344.284546 
	C1366.931519,349.769775 1363.787964,352.966980 1359.404297,354.701477 
	C1354.467163,356.654877 1349.201660,357.990814 1343.958984,358.916534 
	C1331.278076,361.155670 1318.376709,362.337830 1305.847168,365.189453 
	C1293.247192,368.057129 1282.627563,374.708771 1275.919800,386.393555 
	C1269.473511,397.622894 1268.070557,409.567261 1269.913330,422.294708 
	C1272.713867,441.638397 1283.971191,453.103973 1301.650879,457.792999 
	C1314.174438,461.114502 1327.122559,461.424591 1340.249268,460.237305 
	C1353.380371,459.049652 1366.100708,457.020905 1378.944092,451.555969 
M1466.996216,174.308762 
	C1463.858521,185.832367 1457.776733,194.100601 1444.844727,195.699890 
	C1432.462769,197.231155 1419.774658,193.071442 1413.013062,181.210114 
	C1407.764648,172.003326 1406.544312,161.785828 1406.173340,151.580185 
	C1405.925659,144.767868 1407.004150,137.844940 1408.058472,131.059967 
	C1410.694092,114.096123 1418.045288,102.835136 1435.931763,100.232880 
	C1444.617065,98.969284 1453.757080,100.101227 1459.773682,107.560959 
	C1463.805420,112.560036 1466.339722,118.766899 1469.758057,124.811928 
	C1483.748291,124.811928 1498.695679,124.811928 1513.572510,124.811928 
	C1513.030884,121.253090 1512.665405,117.834923 1511.972168,114.484573 
	C1509.713501,103.568680 1506.142700,93.180138 1498.324707,84.864082 
	C1485.608643,71.337868 1468.911255,66.630142 1451.287231,65.202896 
	C1441.458984,64.406967 1431.375610,64.945526 1421.563477,66.152481 
	C1402.628784,68.481613 1387.324585,77.534576 1375.955078,93.103622 
	C1364.971802,108.143837 1360.838013,125.457443 1360.249756,143.484543 
	C1359.894653,154.368332 1361.093384,165.512787 1363.216309,176.218399 
	C1366.417725,192.363632 1374.185425,206.403427 1387.376099,216.799042 
	C1397.731567,224.960190 1409.830200,228.598038 1422.838379,230.130737 
	C1437.527954,231.861526 1452.000488,231.577225 1466.210938,227.313583 
	C1481.641724,222.683777 1493.315430,213.089584 1502.082764,199.670578 
	C1508.310059,190.139191 1512.260864,179.922379 1513.135376,168.229797 
	C1497.904907,168.229797 1483.140503,168.229797 1468.416626,168.229797 
	C1467.925049,170.057571 1467.467407,171.758636 1466.996216,174.308762 
M1285.003662,86.495079 
	C1269.879639,101.019531 1263.496948,119.352760 1263.122192,139.729965 
	C1262.626099,166.712280 1263.000000,193.710587 1263.000000,220.702026 
	C1263.000000,222.990356 1263.000000,225.278671 1263.000000,227.758118 
	C1277.158691,227.758118 1290.885498,227.758118 1305.000000,227.758118 
	C1305.000000,225.894470 1304.983521,224.267242 1305.002319,222.640411 
	C1305.332397,194.058044 1305.518921,165.472748 1306.100586,136.895477 
	C1306.251831,129.466110 1309.009399,122.762863 1314.297729,117.086235 
	C1321.047485,109.840881 1329.802124,107.930054 1338.943237,107.085983 
	C1344.105347,106.609322 1349.347534,107.000031 1354.776855,107.000031 
	C1354.776855,93.583488 1354.776855,79.504402 1354.776855,64.563560 
	C1346.156006,65.051750 1337.743408,65.108971 1329.439331,66.086678 
	C1312.757812,68.050713 1297.594971,73.722763 1285.003662,86.495079 
z"/>
<path fill="#2E3478" opacity="1.000000" stroke="none" 
	d="
M387.531342,1.000002 
	C389.160645,1.332140 390.304108,1.864981 391.484528,1.966111 
	C407.515869,3.339557 423.578308,4.398800 439.581879,6.035979 
	C470.196655,9.167889 499.945007,16.280264 529.273438,25.556479 
	C554.377563,33.496574 578.806030,43.087418 601.585205,56.159554 
	C619.270996,66.308853 636.762695,77.198357 652.800842,89.729675 
	C682.319214,112.793808 706.203552,140.931885 721.190857,175.738327 
	C727.022278,189.281143 731.989868,203.266617 732.931885,218.160385 
	C733.943420,234.154236 735.615845,250.257263 734.740051,266.188446 
	C732.848633,300.591919 722.586792,332.565887 704.573364,362.242950 
	C691.850220,383.204254 675.765869,401.106628 657.864380,417.376373 
	C641.228699,432.495697 622.526550,444.962128 602.733643,455.781006 
	C580.632690,467.861511 557.590088,477.597198 533.578674,485.123993 
	C511.601379,492.013153 489.396271,497.971954 466.517975,500.980774 
	C449.833862,503.174957 433.150604,505.818054 416.381042,506.813446 
	C392.406128,508.236603 368.348083,508.958221 344.334625,508.776581 
	C329.287354,508.662781 314.249542,506.417206 299.220062,504.995636 
	C262.207275,501.494781 226.254242,493.219116 191.136703,481.078583 
	C155.299744,468.689301 122.120125,451.264252 92.002724,428.283295 
	C81.950798,420.613220 72.418114,412.059692 63.661343,402.937347 
	C45.159187,383.662842 29.661140,362.141479 18.917461,337.492737 
	C11.709135,320.955048 6.104167,303.898895 4.051520,285.892700 
	C2.972191,276.424652 2.523546,266.884674 1.395057,257.188599 
	C1.000000,256.250000 1.000000,255.500000 1.395167,254.186249 
	C1.859061,247.468246 1.425752,241.258301 2.101182,235.171371 
	C3.500774,222.558365 4.032403,209.591187 7.509483,197.514938 
	C17.920095,161.357819 38.349876,131.267014 65.755165,105.550461 
	C81.559784,90.719734 98.652802,77.852356 116.986107,66.382591 
	C140.291321,51.802265 165.032257,40.303333 190.812958,31.037476 
	C222.896164,19.506420 255.751999,10.845853 289.707916,7.034430 
	C307.938354,4.988130 326.249878,3.666484 344.520477,1.971133 
	C346.030701,1.830998 347.507599,1.332166 349.000000,0.999999 
	C361.687561,1.000000 374.375122,1.000000 387.531342,1.000002 
M424.966553,463.533508 
	C428.759033,463.061676 432.549652,462.574127 436.344269,462.120392 
	C475.647430,457.420959 513.904053,448.350433 550.758789,433.872314 
	C599.405396,414.761841 643.516968,388.703979 678.030701,348.494019 
	C695.612610,328.010345 708.587036,304.970123 715.629639,278.765625 
	C719.894836,262.895569 721.076050,246.783417 719.803162,229.982071 
	C670.015625,241.562103 621.610779,255.994705 574.668091,275.419708 
	C589.186523,305.993256 564.102356,330.933929 534.373108,327.477844 
	C534.232056,327.912170 534.014832,328.357391 533.946167,328.824493 
	C530.585022,351.693970 512.132141,366.150482 488.869843,364.340088 
	C487.639648,364.244324 485.553528,365.623627 485.076385,366.805115 
	C478.025574,384.264343 460.434814,394.196838 441.777435,391.231750 
	C440.077332,390.961548 437.421997,391.307739 436.491425,392.430054 
	C427.823151,402.884186 415.905487,405.677734 403.638489,404.389740 
	C394.104797,403.388672 384.836487,399.375671 375.607574,396.238403 
	C372.650421,395.233154 370.800140,394.854279 368.078918,397.039948 
	C352.967377,409.177521 334.113831,410.655975 318.513092,399.880737 
	C311.795929,395.241241 306.763062,388.163300 300.433044,381.645416 
	C283.215759,385.411652 266.663910,378.395508 256.790466,362.517487 
	C255.983185,361.219208 253.828171,360.267212 252.191498,360.075531 
	C248.410568,359.632721 244.388611,360.446014 240.773224,359.530426 
	C225.021561,355.541351 213.659058,346.405487 208.921204,330.333191 
	C208.065964,327.431885 206.611908,326.592682 203.874039,327.221741 
	C202.911728,327.442841 201.902969,327.665588 200.930984,327.610901 
	C176.796021,326.253326 161.159866,305.277954 167.276489,282.036743 
	C168.230972,278.410034 167.279160,276.739136 164.476486,275.301971 
	C155.153198,270.521179 146.057312,265.197479 136.435486,261.116425 
	C104.328125,247.498138 70.729401,238.655197 36.786331,231.025208 
	C30.382738,229.585770 23.988731,228.103683 17.122276,226.534302 
	C14.798678,240.982605 16.096642,254.532059 18.577066,267.918793 
	C25.668320,306.190002 45.844746,337.291595 73.019470,364.152863 
	C93.878189,384.770935 117.888367,401.263458 143.852951,414.837982 
	C206.768417,447.730713 274.295471,463.092407 344.755280,465.714508 
	C371.134308,466.696198 397.631744,464.495636 424.966553,463.533508 
M558.689148,278.854095 
	C518.559448,244.298630 478.552734,209.598541 438.215393,175.287155 
	C427.852142,166.472061 416.812317,158.322388 405.419983,150.882812 
	C393.440338,143.059692 380.186584,142.494949 367.346710,148.988266 
	C358.926300,153.246582 350.800293,158.237808 343.046967,163.626694 
	C333.074524,170.557953 323.682556,178.318069 313.903107,185.534882 
	C302.375122,194.041977 289.481903,198.240997 275.045837,196.989944 
	C264.173004,196.047684 253.540909,194.167572 244.553955,187.362701 
	C235.431015,180.454834 234.497055,171.330231 242.041840,162.837067 
	C247.790405,156.365936 253.771790,150.101746 259.643921,143.740250 
	C265.576721,137.313034 271.502563,130.879379 277.431427,124.448540 
	C270.618866,125.082718 264.274078,126.378204 258.164642,128.388809 
	C239.260956,134.609955 220.065262,136.080231 200.536469,132.372955 
	C165.131683,125.651894 130.977570,114.676208 97.480515,101.567780 
	C94.709000,100.483200 92.848907,100.356796 90.417824,102.387108 
	C73.322639,116.664223 57.895969,132.476196 45.337818,150.932709 
	C32.976482,169.099991 23.849768,188.701981 19.270323,210.978912 
	C73.326241,225.191833 128.490234,235.759079 176.721100,265.854950 
	C194.288162,251.665329 209.455551,252.543839 229.482269,268.850311 
	C251.285522,256.101074 270.391846,260.139282 288.698608,281.453827 
	C302.113983,277.519684 314.751801,279.682922 326.053864,287.775299 
	C337.907104,296.262360 340.297943,309.118866 340.159546,322.693390 
	C355.970032,322.933105 368.121124,329.219513 376.486237,341.970825 
	C384.864410,354.742035 385.016418,368.493530 379.300049,383.469025 
	C386.669189,385.762970 393.501251,388.277618 400.531036,389.972443 
	C408.055634,391.786591 415.427094,390.495117 422.210083,386.661987 
	C425.343506,384.891266 426.461517,382.892029 423.254700,379.709290 
	C418.533264,375.023376 414.238007,369.907318 409.773987,364.962952 
	C404.976959,359.649811 399.969208,354.500305 395.559723,348.882080 
	C394.414764,347.423248 395.160004,344.480957 395.037018,342.220032 
	C397.177795,342.261108 399.473450,341.835815 401.413879,342.480194 
	C403.196838,343.072296 404.697357,344.709625 406.149811,346.070587 
	C415.142670,354.496704 424.522858,362.569275 432.897003,371.575165 
	C438.683228,377.797913 445.254639,379.013306 452.776886,377.870209 
	C460.461304,376.702484 466.773987,372.810333 469.696838,365.433960 
	C472.395294,358.623901 467.737701,353.827850 463.557281,349.178894 
	C453.537445,338.035980 443.544678,326.868683 433.561615,315.692780 
	C432.678680,314.704346 431.499542,313.675781 431.249756,312.497925 
	C430.876953,310.740021 430.497101,308.142517 431.433990,307.176758 
	C432.436707,306.143188 435.149353,306.009155 436.775208,306.535095 
	C438.727905,307.166779 440.488068,308.732788 442.043304,310.199860 
	C453.914429,321.397888 465.827209,332.555969 477.491882,343.966888 
	C483.542206,349.885590 490.557709,351.953369 498.493652,349.899872 
	C507.863464,347.475372 515.850159,342.800537 518.997986,332.835022 
	C521.947266,323.498077 516.320068,317.437805 510.379578,311.513000 
	C496.106049,297.277313 481.917603,282.956299 467.696136,268.668427 
	C467.461395,268.432587 467.226776,268.193268 467.020294,267.933167 
	C465.152008,265.579559 462.663086,263.075134 465.316803,260.074066 
	C467.927734,257.121399 470.806793,258.898071 473.272736,260.766022 
	C475.526489,262.473145 477.685394,264.316528 479.792908,266.203949 
	C495.421875,280.200806 511.024200,294.227325 526.641846,308.236786 
	C535.285706,315.990570 550.210938,315.063660 559.379272,306.218994 
	C566.990112,298.876862 566.919922,288.808960 558.689148,278.854095 
M513.801208,126.804756 
	C494.710205,123.431206 476.251038,117.920433 458.724701,109.639259 
	C441.313477,101.412483 423.284668,95.112450 404.224854,92.488693 
	C366.685242,87.321037 331.965302,94.154984 303.326782,120.393158 
	C287.032074,135.322113 272.202789,151.857285 256.821350,167.773300 
	C249.913727,174.920990 250.499603,177.034317 259.801392,180.573883 
	C260.420227,180.809357 261.061188,180.992966 261.701416,181.165054 
	C277.141144,185.314606 291.701508,183.839218 304.978058,174.331818 
	C309.037811,171.424591 313.040741,168.438110 317.070129,165.488510 
	C329.553284,156.350586 341.480469,146.298584 354.649567,138.288361 
	C374.671112,126.110115 395.467224,125.746582 415.164948,139.605026 
	C426.721832,147.735962 438.028900,156.314301 448.794312,165.461166 
	C486.231689,197.269928 523.411743,229.382019 560.584167,261.500854 
	C563.269592,263.821228 565.209290,263.884338 568.454773,262.669098 
	C596.146667,252.300095 623.720398,241.537643 651.778748,232.250107 
	C673.349792,225.109924 695.570129,219.930847 718.108459,213.712280 
	C716.927429,208.996719 715.854858,203.831085 714.338013,198.799423 
	C703.053284,161.364838 680.155090,131.859756 650.978577,106.749977 
	C649.875793,105.800903 647.009644,105.942612 645.435669,106.639145 
	C603.650818,125.130310 560.425293,134.115128 513.801208,126.804756 
M179.355896,50.836842 
	C154.061157,61.102596 130.019577,73.643890 107.037376,89.959053 
	C109.101624,90.932228 110.198326,91.632088 111.397141,91.987602 
	C139.428726,100.300453 167.381241,108.899605 195.544281,116.742355 
	C213.677490,121.792038 231.983963,121.398689 250.174942,115.882210 
	C264.801697,111.446587 279.537720,107.322769 295.011353,106.867073 
	C296.636383,106.819221 298.424896,105.613770 299.791748,104.515137 
	C320.871704,87.571938 345.223389,79.143585 371.899719,77.131500 
	C403.376068,74.757370 433.033295,82.017944 461.385101,95.205437 
	C486.868866,107.058907 513.411865,114.375389 541.636658,115.105980 
	C565.510864,115.723961 588.680542,111.800301 611.270203,104.310852 
	C619.527222,101.573273 627.609863,98.309929 635.772095,95.286438 
	C635.859619,94.686302 635.947083,94.086159 636.034607,93.486015 
	C622.128052,85.037247 608.587952,75.900948 594.251648,68.258293 
	C530.984802,34.530804 462.772186,19.396523 391.659760,16.261517 
	C372.903168,15.434627 354.025085,16.024143 335.262848,17.055542 
	C317.866913,18.011829 300.442078,19.714336 283.223053,22.349831 
	C247.798767,27.771767 213.303894,36.953346 179.355896,50.836842 
M214.901245,309.366791 
	C216.142761,308.390228 217.384293,307.413666 219.983688,305.369019 
	C220.285599,309.070709 220.743515,311.336945 220.606522,313.566589 
	C219.895325,325.139923 222.984589,334.980957 233.031021,341.770630 
	C242.449402,348.135864 251.783585,348.380219 261.348206,341.806427 
	C264.953796,339.328278 267.109192,340.915741 266.810516,345.656738 
	C266.158447,356.007538 271.801910,362.044556 280.365662,366.267029 
	C289.057312,370.552521 297.240387,370.594788 304.936127,363.892853 
	C306.410278,362.609100 308.643951,362.197510 310.527252,361.383575 
	C311.300476,363.283356 312.572479,365.133728 312.766327,367.090881 
	C314.060974,380.163971 323.650818,390.920532 336.081635,392.925201 
	C349.596710,395.104706 362.618256,387.921265 367.648651,375.511017 
	C372.599426,363.297119 368.660248,349.561829 357.828735,341.789368 
	C349.144714,335.557892 339.838348,334.760468 329.915619,338.688721 
	C328.162018,339.382996 325.914307,338.829315 323.894775,338.851898 
	C323.944794,336.810608 323.740906,334.723572 324.098633,332.737732 
	C324.802917,328.827942 326.128204,325.015106 326.646118,321.089539 
	C328.020081,310.675385 323.499542,301.354645 315.259705,296.911987 
	C304.382477,291.047333 294.072510,291.848175 285.480957,299.010651 
	C284.229980,300.053558 282.293549,300.906342 280.790161,300.747925 
	C280.037537,300.668610 279.243256,298.162872 278.985657,296.665497 
	C277.288422,286.800995 272.377441,279.735687 262.322235,277.006470 
	C251.942429,274.189148 242.427353,275.995422 234.319656,283.083435 
	C230.642746,286.297943 227.678818,290.328003 224.275040,294.117676 
	C223.845886,291.590759 223.548157,289.008759 222.956543,286.495911 
	C220.207611,274.819824 208.438995,267.542206 196.554199,270.093109 
	C185.169998,272.536621 177.692291,284.222046 179.717941,295.786621 
	C182.160568,309.731689 199.370361,320.072632 214.901245,309.366791 
z"/>
<path fill="#009EE3" opacity="1.000000" stroke="none" 
	d="
M1489.468628,523.000000 
	C1482.905884,521.635437 1476.691162,520.663818 1470.739136,518.836426 
	C1448.387085,511.973785 1435.322876,495.974854 1428.006592,474.521790 
	C1427.697021,473.614258 1427.442261,472.688019 1427.022461,471.314331 
	C1428.387085,471.201660 1429.607666,471.017273 1430.828857,471.013519 
	C1439.157959,470.987793 1447.491333,471.167023 1455.814941,470.954132 
	C1464.542725,470.730896 1473.395508,469.765869 1478.639526,479.117706 
	C1497.479126,492.999634 1518.707275,486.142548 1527.671143,464.970245 
	C1531.063354,456.958160 1531.282593,447.602753 1532.215088,438.575500 
	C1526.073120,445.174622 1520.051636,451.339172 1511.810791,454.593811 
	C1502.579468,458.239624 1493.198608,459.376892 1483.086792,458.316406 
	C1469.210449,456.861115 1457.605347,451.116333 1447.791016,442.016083 
	C1437.615234,432.580505 1429.955200,420.909912 1427.208862,407.151947 
	C1424.879761,395.484833 1423.047974,383.435272 1423.290405,371.601929 
	C1423.691162,352.038361 1427.756470,333.151581 1439.626709,316.658844 
	C1448.189819,304.761383 1459.698730,297.936401 1473.735229,295.040436 
	C1491.416382,291.392578 1509.357910,290.572662 1526.569824,296.233002 
	C1549.200195,303.675232 1566.705933,319.439392 1570.898926,344.979950 
	C1572.251343,353.217712 1572.835938,361.659302 1572.908569,370.015198 
	C1573.150391,397.832275 1573.606201,425.669617 1572.831787,453.467255 
	C1572.036499,482.018951 1554.726318,511.583557 1524.374634,520.209717 
	C1521.101562,521.139954 1517.691772,521.589111 1514.172729,522.630676 
	C1505.979126,523.000000 1497.958130,523.000000 1489.468628,523.000000 
M1472.434814,411.921051 
	C1473.938110,413.610840 1475.307495,415.447021 1476.968262,416.964478 
	C1483.424927,422.864044 1491.424805,422.801575 1499.542114,423.107147 
	C1512.703491,423.602661 1523.078613,414.336823 1526.779053,404.236115 
	C1533.072998,387.056030 1533.968384,369.484375 1527.502319,352.076965 
	C1521.657959,336.343567 1512.525391,327.498627 1494.353027,329.041901 
	C1485.695190,329.777130 1477.771851,332.775085 1473.664551,340.944305 
	C1462.054688,364.035309 1461.285156,387.570099 1472.434814,411.921051 
z"/>
<path fill="#FFFFFF" opacity="1.000000" stroke="none" 
	d="
M348.531342,0.999999 
	C347.507599,1.332166 346.030701,1.830998 344.520477,1.971133 
	C326.249878,3.666484 307.938354,4.988130 289.707916,7.034430 
	C255.751999,10.845853 222.896164,19.506420 190.812958,31.037476 
	C165.032257,40.303333 140.291321,51.802265 116.986107,66.382591 
	C98.652802,77.852356 81.559784,90.719734 65.755165,105.550461 
	C38.349876,131.267014 17.920095,161.357819 7.509483,197.514938 
	C4.032403,209.591187 3.500774,222.558365 2.101182,235.171371 
	C1.425752,241.258301 1.859061,247.468246 1.395167,253.811249 
	C1.000000,169.728088 1.000000,85.456184 1.000000,1.000000 
	C116.687492,1.000000 232.375092,1.000000 348.531342,0.999999 
z"/>
<path fill="#2D3277" opacity="1.000000" stroke="none" 
	d="
M2003.000000,149.571533 
	C2002.666748,151.324738 2002.073120,152.642715 2002.038696,153.975204 
	C2001.400757,178.598083 1992.195679,199.449432 1973.658936,215.621643 
	C1963.954346,224.088135 1951.979858,228.646362 1939.123779,229.894928 
	C1930.094482,230.771881 1920.913330,231.474472 1911.898438,230.844955 
	C1887.171875,229.118240 1867.269043,218.648163 1854.300415,196.739151 
	C1846.172485,183.008057 1842.444458,168.249573 1841.801270,152.243286 
	C1841.114746,135.155563 1843.701660,118.962860 1851.125610,103.668327 
	C1862.169312,80.916351 1880.565918,67.558884 1905.475830,64.171288 
	C1925.995361,61.380749 1946.238037,62.875675 1965.028687,72.996658 
	C1975.545410,78.661201 1982.931152,87.287636 1989.114624,97.328583 
	C1997.892700,111.582939 2002.079102,127.001503 2002.606445,143.816727 
	C2003.000000,145.714355 2003.000000,147.428711 2003.000000,149.571533 
M1946.514526,109.010239 
	C1944.982544,107.479736 1943.690552,105.538101 1941.881592,104.482132 
	C1922.994629,93.457268 1896.522827,97.792595 1888.179565,124.077690 
	C1883.814087,137.831177 1883.469971,152.201920 1887.079346,166.292633 
	C1891.037109,181.743073 1899.150024,194.002243 1918.447388,195.732681 
	C1934.751221,197.194672 1948.021362,191.092407 1954.984863,171.288498 
	C1959.191040,159.326035 1959.443359,146.844131 1957.779053,134.544769 
	C1956.549805,125.460693 1954.124634,116.340363 1946.514526,109.010239 
z"/>
<path fill="#2D3277" opacity="1.000000" stroke="none" 
	d="
M1039.123169,228.000000 
	C1037.187378,227.928375 1035.738403,227.856766 1034.000000,227.770859 
	C1034.000000,225.321045 1034.000000,223.185745 1034.000000,221.050446 
	C1034.000000,190.885986 1034.412598,160.713379 1033.817871,130.560638 
	C1033.539917,116.467361 1027.558105,107.518196 1015.093079,104.725243 
	C996.082031,100.465538 979.645935,110.291206 979.176147,131.072449 
	C978.490845,161.388077 979.000000,191.730713 979.000000,222.061829 
	C979.000000,223.863007 979.000000,225.664169 979.000000,227.730774 
	C965.939148,227.730774 953.209656,227.730774 940.000000,227.730774 
	C940.000000,225.832672 940.000000,224.049988 940.000000,222.267319 
	C940.000000,191.436234 940.049622,160.605026 939.963318,129.774185 
	C939.943054,122.539368 937.109680,116.474472 932.474670,110.736679 
	C925.982910,102.700371 907.362366,102.437660 899.551941,106.898987 
	C889.257507,112.779297 885.098938,121.947083 885.046631,133.212708 
	C884.908752,162.876572 885.000000,192.541489 885.000000,222.205994 
	C885.000000,223.994278 885.000000,225.782562 885.000000,227.781754 
	C872.289062,227.781754 860.010254,227.781754 847.000000,227.781754 
	C847.000000,226.285400 847.000000,224.704208 847.000000,223.123016 
	C847.000000,190.292068 846.386353,157.445297 847.233032,124.636208 
	C847.731079,105.334511 856.433044,89.049530 871.898987,77.077827 
	C885.863831,66.268188 902.185059,62.664875 919.454529,64.117828 
	C935.664062,65.481598 949.538635,72.255836 960.448059,85.216438 
	C968.190979,76.148064 977.397766,69.614487 988.779419,66.679115 
	C1013.411560,60.326385 1035.995361,64.171501 1054.528198,82.302956 
	C1065.674072,93.207481 1071.356567,107.335686 1071.931030,123.039871 
	C1072.567993,140.453110 1072.796021,157.884811 1072.963501,175.310745 
	C1073.130005,192.632919 1073.000000,209.957947 1073.000000,228.000000 
	C1061.778076,228.000000 1050.693970,228.000000 1039.123169,228.000000 
z"/>
<path fill="#009EE3" opacity="1.000000" stroke="none" 
	d="
M1150.658691,440.253723 
	C1149.940918,441.049469 1149.067505,442.125397 1149.060791,443.206757 
	C1148.969971,457.705627 1149.213989,472.210358 1148.863159,486.701233 
	C1148.764160,490.794647 1147.599243,495.115082 1145.894043,498.863159 
	C1142.531372,506.254700 1135.782227,509.345215 1128.136353,509.890900 
	C1121.021851,510.398651 1113.842773,509.999329 1106.223267,509.999329 
	C1106.142822,508.198944 1106.009521,506.603210 1106.009155,505.007477 
	C1105.997803,458.342804 1105.756226,411.675964 1106.173462,365.015015 
	C1106.276367,353.519653 1107.755127,341.995239 1112.867920,331.166290 
	C1122.027954,311.765625 1137.591309,300.908173 1157.863892,296.033661 
	C1175.889893,291.699341 1194.002930,291.413940 1211.749390,297.132202 
	C1226.964844,302.035004 1238.975586,311.223114 1247.174805,325.385345 
	C1255.347656,339.501984 1258.861084,354.529144 1259.109741,370.730743 
	C1259.359131,386.973541 1258.345581,402.884369 1252.041382,418.085297 
	C1243.314087,439.129028 1229.060791,454.396210 1206.036255,458.745605 
	C1189.948242,461.784698 1173.999634,460.146698 1160.208252,449.942139 
	C1156.705322,447.350342 1153.985596,443.700226 1150.658691,440.253723 
M1216.079712,382.811218 
	C1216.386475,381.216400 1217.105469,379.574768 1216.930542,378.034668 
	C1216.047363,370.260040 1216.035278,362.156677 1213.676270,354.825470 
	C1208.098022,337.489594 1200.010620,330.875671 1182.682373,329.097565 
	C1169.962769,327.792389 1156.362305,337.884552 1152.063354,351.450073 
	C1147.862549,364.706268 1148.001587,378.332428 1150.029663,391.925537 
	C1153.120117,412.637329 1165.484009,423.049194 1186.389893,423.016968 
	C1193.774536,423.005585 1199.996338,419.607635 1204.505249,414.577301 
	C1212.191895,406.001648 1216.296509,395.547394 1216.079712,382.811218 
z"/>
<path fill="#2D3277" opacity="1.000000" stroke="none" 
	d="
M1766.220947,230.038849 
	C1759.167114,230.377884 1752.428101,231.693039 1746.016357,230.759933 
	C1736.310669,229.347443 1726.683105,226.853882 1717.291504,223.949463 
	C1701.299316,219.003784 1691.749512,207.335388 1684.637573,192.549881 
	C1676.037354,174.671112 1676.134155,155.816864 1677.280396,137.040909 
	C1678.208130,121.846565 1681.816040,106.852654 1690.649170,93.834709 
	C1700.334961,79.559937 1712.631348,68.816437 1730.325684,66.029297 
	C1744.447388,63.804909 1758.607788,63.357883 1771.295044,71.230942 
	C1777.304932,74.960381 1782.363525,80.222862 1787.765137,84.717537 
	C1787.791016,84.421829 1787.984375,83.232689 1787.986328,82.043228 
	C1788.008057,68.876617 1788.211548,55.705559 1787.937988,42.544601 
	C1787.684814,30.362797 1794.959229,21.476107 1804.929565,18.265089 
	C1812.693604,15.764590 1821.107544,15.281753 1830.000000,13.771940 
	C1830.000000,16.777760 1830.000000,18.220493 1830.000000,19.663227 
	C1830.000000,69.496483 1830.641235,119.341850 1829.700684,169.157349 
	C1829.295410,190.616577 1819.019409,208.228958 1800.306885,219.912033 
	C1790.073730,226.300934 1778.788452,229.633011 1766.220947,230.038849 
M1785.949829,127.784592 
	C1785.501099,126.569374 1785.067993,125.348137 1784.601440,124.139832 
	C1779.028931,109.707306 1769.317627,101.735413 1754.425171,101.190147 
	C1741.797485,100.727814 1731.814819,106.705635 1726.351074,118.366730 
	C1717.448853,137.366470 1717.695435,156.921844 1724.903564,176.316772 
	C1728.884521,187.028580 1736.452881,194.498764 1748.346069,195.934067 
	C1762.134521,197.598068 1773.748779,193.613525 1781.240479,181.175369 
	C1785.475830,174.143341 1787.211304,166.395615 1788.299438,158.160721 
	C1789.645874,147.970261 1788.078979,138.358017 1785.949829,127.784592 
z"/>
<path fill="#2D3277" opacity="1.000000" stroke="none" 
	d="
M1097.993408,194.961029 
	C1092.045532,184.167007 1089.360474,172.860840 1089.046143,161.002090 
	C1088.811646,152.156479 1088.338379,143.240860 1089.118652,134.458359 
	C1091.954712,102.536133 1109.253784,75.780746 1143.097290,67.375114 
	C1164.815552,61.980980 1186.972778,62.953461 1207.620850,73.916283 
	C1222.147339,81.628845 1231.709229,93.609352 1237.977295,108.483376 
	C1242.205444,118.516922 1244.196411,128.973297 1244.094116,139.924713 
	C1244.036255,146.118607 1244.923706,152.321320 1245.422363,159.017349 
	C1206.832520,159.017349 1169.094238,159.017349 1131.394653,159.017349 
	C1129.845581,179.215363 1144.748413,195.936829 1163.981567,195.949966 
	C1169.393799,195.953659 1174.816528,195.467773 1180.216187,194.996735 
	C1186.065796,194.486435 1190.410889,191.259506 1194.510620,187.225952 
	C1196.259033,185.505676 1199.220215,184.195404 1201.662720,184.140335 
	C1214.819336,183.843704 1227.986084,184.000000 1241.498413,184.000000 
	C1240.422485,191.965164 1235.945068,198.057419 1231.425903,204.017349 
	C1220.942871,217.842865 1206.725098,226.103287 1189.973999,229.416367 
	C1162.796143,234.791672 1137.218140,231.212082 1114.432617,214.035538 
	C1107.606201,208.889465 1102.238159,202.683655 1097.993408,194.961029 
M1142.511230,107.992996 
	C1136.815918,114.549652 1133.345581,122.069595 1131.897583,130.706512 
	C1155.383423,130.706512 1178.123535,130.706512 1201.264771,130.706512 
	C1199.577515,123.058098 1198.110107,115.899719 1192.677490,110.081551 
	C1181.258057,97.851654 1158.792480,94.414253 1142.511230,107.992996 
z"/>
<path fill="#009EE3" opacity="1.000000" stroke="none" 
	d="
M1716.719971,305.225281 
	C1733.966675,318.626892 1743.644653,336.096558 1746.920898,357.107941 
	C1748.132324,364.876862 1749.196289,372.842621 1748.834229,380.649414 
	C1747.859253,401.674225 1741.790405,420.943268 1727.459961,437.122528 
	C1715.443115,450.689911 1700.129639,456.891571 1682.579468,459.058746 
	C1666.874878,460.997986 1651.556885,460.109375 1636.424194,455.179199 
	C1615.910522,448.495941 1603.442017,433.715240 1595.062134,414.789276 
	C1588.100830,399.067322 1586.657593,382.294800 1588.198242,365.527679 
	C1589.929321,346.686493 1596.664307,329.556183 1609.402100,315.003845 
	C1621.491577,301.192291 1636.998169,295.128052 1654.724121,292.913116 
	C1671.317261,290.839722 1687.458130,292.043427 1703.072754,298.046722 
	C1707.732544,299.838226 1712.005737,302.635376 1716.719971,305.225281 
M1679.083618,329.051880 
	C1678.418579,329.017120 1677.735474,329.068634 1677.090942,328.935028 
	C1657.082031,324.787750 1641.810059,332.489044 1635.161621,351.537903 
	C1630.127075,365.962372 1629.839233,380.894287 1633.837646,395.894196 
	C1636.365479,405.376678 1640.340820,413.761047 1648.771484,419.139130 
	C1656.244019,423.905975 1664.431152,425.397614 1673.459473,424.140350 
	C1686.240234,422.360565 1695.042358,415.597046 1699.825317,404.118652 
	C1706.045532,389.191071 1706.494141,373.546448 1702.957520,357.855286 
	C1699.977051,344.631073 1693.654175,333.917694 1679.083618,329.051880 
z"/>
<path fill="#2D3277" opacity="1.000000" stroke="none" 
	d="
M1602.671021,98.002785 
	C1595.902832,98.761826 1589.286499,98.568245 1583.371216,100.510033 
	C1574.676758,103.364120 1572.308228,111.559784 1570.647339,119.836922 
	C1557.298218,119.836922 1544.001709,119.836922 1529.265137,119.836922 
	C1530.882568,112.731880 1531.823975,105.717712 1534.093750,99.163559 
	C1541.084473,78.976433 1556.702515,69.594383 1576.826782,65.910072 
	C1595.560303,62.480427 1614.070312,63.054111 1632.081787,69.142441 
	C1639.344116,71.597214 1646.569214,75.116119 1652.726807,79.629913 
	C1659.596313,84.665489 1662.731445,92.717903 1663.937134,101.162758 
	C1664.608521,105.866150 1664.928589,110.655815 1664.954346,115.409035 
	C1665.062500,135.404922 1665.359741,155.410370 1664.879517,175.395294 
	C1664.531494,189.885544 1659.534790,202.957367 1648.511719,212.825775 
	C1639.385132,220.996277 1628.115479,225.208084 1616.301514,228.002792 
	C1601.865723,231.417725 1587.155884,231.590210 1572.519409,230.832153 
	C1561.639893,230.268646 1550.942993,227.714157 1541.923462,220.951996 
	C1532.907471,214.192505 1527.691406,205.195511 1525.901855,193.920731 
	C1524.192139,183.149612 1524.933472,172.783524 1528.820190,162.647491 
	C1534.813354,147.017639 1547.338135,138.831192 1562.670898,135.213760 
	C1575.455933,132.197418 1588.717285,131.256119 1601.672241,128.876129 
	C1607.140137,127.871552 1612.593262,126.029808 1617.646118,123.689903 
	C1626.174438,119.740639 1624.171143,104.808975 1616.518799,101.979919 
	C1612.163452,100.369789 1607.603882,99.311729 1602.671021,98.002785 
M1609.534302,193.070908 
	C1612.677002,189.796722 1616.679810,186.996445 1618.795532,183.156479 
	C1624.404907,172.975906 1622.981323,161.646790 1622.929810,151.810074 
	C1612.084595,154.210571 1601.246338,156.526794 1590.449585,159.022827 
	C1579.927124,161.455505 1569.890015,164.429092 1567.250854,177.214920 
	C1565.677246,184.838654 1569.315796,193.557724 1576.206909,197.038422 
	C1587.885742,202.937546 1598.540039,199.346603 1609.534302,193.070908 
z"/>
<path fill="#009EE3" opacity="1.000000" stroke="none" 
	d="
M1378.611328,451.751495 
	C1366.100708,457.020905 1353.380371,459.049652 1340.249268,460.237305 
	C1327.122559,461.424591 1314.174438,461.114502 1301.650879,457.792999 
	C1283.971191,453.103973 1272.713867,441.638397 1269.913330,422.294708 
	C1268.070557,409.567261 1269.473511,397.622894 1275.919800,386.393555 
	C1282.627563,374.708771 1293.247192,368.057129 1305.847168,365.189453 
	C1318.376709,362.337830 1331.278076,361.155670 1343.958984,358.916534 
	C1349.201660,357.990814 1354.467163,356.654877 1359.404297,354.701477 
	C1363.787964,352.966980 1366.931519,349.769775 1367.086060,344.284546 
	C1367.258179,338.178345 1365.098511,333.231934 1359.616577,331.051056 
	C1347.582886,326.263519 1334.895264,325.306000 1323.787354,332.521057 
	C1319.039917,335.604767 1316.873535,342.662018 1312.987183,348.774475 
	C1301.228760,348.774475 1287.785400,348.774475 1274.331055,348.774475 
	C1275.783936,321.465668 1289.062012,301.358856 1318.188599,296.230286 
	C1329.799072,294.185913 1341.934570,293.489532 1353.687744,294.288086 
	C1369.685547,295.375031 1385.366699,299.076508 1397.857056,310.411560 
	C1405.587769,317.427277 1408.626709,326.906525 1408.840210,336.798767 
	C1409.340088,359.952698 1409.596558,383.144745 1408.822632,406.283600 
	C1408.128662,427.032410 1397.724365,442.284668 1378.611328,451.751495 
M1336.732178,388.009094 
	C1332.567139,389.314575 1328.377686,390.547333 1324.242432,391.941223 
	C1316.269775,394.628601 1311.823608,400.684875 1311.226562,408.607178 
	C1310.689575,415.730286 1312.772949,422.367889 1319.840942,426.539703 
	C1325.410278,429.826874 1331.132568,429.867432 1337.092285,428.981110 
	C1349.547363,427.128784 1362.296997,420.867126 1365.495605,406.573090 
	C1367.368286,398.204773 1366.937866,389.321075 1367.492676,381.396851 
	C1357.130615,383.686249 1347.365967,385.843658 1336.732178,388.009094 
z"/>
<path fill="#2D3277" opacity="1.000000" stroke="none" 
	d="
M1467.003052,173.884232 
	C1467.467407,171.758636 1467.925049,170.057571 1468.416626,168.229797 
	C1483.140503,168.229797 1497.904907,168.229797 1513.135376,168.229797 
	C1512.260864,179.922379 1508.310059,190.139191 1502.082764,199.670578 
	C1493.315430,213.089584 1481.641724,222.683777 1466.210938,227.313583 
	C1452.000488,231.577225 1437.527954,231.861526 1422.838379,230.130737 
	C1409.830200,228.598038 1397.731567,224.960190 1387.376099,216.799042 
	C1374.185425,206.403427 1366.417725,192.363632 1363.216309,176.218399 
	C1361.093384,165.512787 1359.894653,154.368332 1360.249756,143.484543 
	C1360.838013,125.457443 1364.971802,108.143837 1375.955078,93.103622 
	C1387.324585,77.534576 1402.628784,68.481613 1421.563477,66.152481 
	C1431.375610,64.945526 1441.458984,64.406967 1451.287231,65.202896 
	C1468.911255,66.630142 1485.608643,71.337868 1498.324707,84.864082 
	C1506.142700,93.180138 1509.713501,103.568680 1511.972168,114.484573 
	C1512.665405,117.834923 1513.030884,121.253090 1513.572510,124.811928 
	C1498.695679,124.811928 1483.748291,124.811928 1469.758057,124.811928 
	C1466.339722,118.766899 1463.805420,112.560036 1459.773682,107.560959 
	C1453.757080,100.101227 1444.617065,98.969284 1435.931763,100.232880 
	C1418.045288,102.835136 1410.694092,114.096123 1408.058472,131.059967 
	C1407.004150,137.844940 1405.925659,144.767868 1406.173340,151.580185 
	C1406.544312,161.785828 1407.764648,172.003326 1413.013062,181.210114 
	C1419.774658,193.071442 1432.462769,197.231155 1444.844727,195.699890 
	C1457.776733,194.100601 1463.858521,185.832367 1467.003052,173.884232 
z"/>
<path fill="#2D3277" opacity="1.000000" stroke="none" 
	d="
M1285.255371,86.245155 
	C1297.594971,73.722763 1312.757812,68.050713 1329.439331,66.086678 
	C1337.743408,65.108971 1346.156006,65.051750 1354.776855,64.563560 
	C1354.776855,79.504402 1354.776855,93.583488 1354.776855,107.000031 
	C1349.347534,107.000031 1344.105347,106.609322 1338.943237,107.085983 
	C1329.802124,107.930054 1321.047485,109.840881 1314.297729,117.086235 
	C1309.009399,122.762863 1306.251831,129.466110 1306.100586,136.895477 
	C1305.518921,165.472748 1305.332397,194.058044 1305.002319,222.640411 
	C1304.983521,224.267242 1305.000000,225.894470 1305.000000,227.758118 
	C1290.885498,227.758118 1277.158691,227.758118 1263.000000,227.758118 
	C1263.000000,225.278671 1263.000000,222.990356 1263.000000,220.702026 
	C1263.000000,193.710587 1262.626099,166.712280 1263.122192,139.729965 
	C1263.496948,119.352760 1269.879639,101.019531 1285.255371,86.245155 
z"/>
<path fill="#009EE3" opacity="1.000000" stroke="none" 
	d="
M424.520874,463.639740 
	C397.631744,464.495636 371.134308,466.696198 344.755280,465.714508 
	C274.295471,463.092407 206.768417,447.730713 143.852951,414.837982 
	C117.888367,401.263458 93.878189,384.770935 73.019470,364.152863 
	C45.844746,337.291595 25.668320,306.190002 18.577066,267.918793 
	C16.096642,254.532059 14.798678,240.982605 17.122276,226.534302 
	C23.988731,228.103683 30.382738,229.585770 36.786331,231.025208 
	C70.729401,238.655197 104.328125,247.498138 136.435486,261.116425 
	C146.057312,265.197479 155.153198,270.521179 164.476486,275.301971 
	C167.279160,276.739136 168.230972,278.410034 167.276489,282.036743 
	C161.159866,305.277954 176.796021,326.253326 200.930984,327.610901 
	C201.902969,327.665588 202.911728,327.442841 203.874039,327.221741 
	C206.611908,326.592682 208.065964,327.431885 208.921204,330.333191 
	C213.659058,346.405487 225.021561,355.541351 240.773224,359.530426 
	C244.388611,360.446014 248.410568,359.632721 252.191498,360.075531 
	C253.828171,360.267212 255.983185,361.219208 256.790466,362.517487 
	C266.663910,378.395508 283.215759,385.411652 300.433044,381.645416 
	C306.763062,388.163300 311.795929,395.241241 318.513092,399.880737 
	C334.113831,410.655975 352.967377,409.177521 368.078918,397.039948 
	C370.800140,394.854279 372.650421,395.233154 375.607574,396.238403 
	C384.836487,399.375671 394.104797,403.388672 403.638489,404.389740 
	C415.905487,405.677734 427.823151,402.884186 436.491425,392.430054 
	C437.421997,391.307739 440.077332,390.961548 441.777435,391.231750 
	C460.434814,394.196838 478.025574,384.264343 485.076385,366.805115 
	C485.553528,365.623627 487.639648,364.244324 488.869843,364.340088 
	C512.132141,366.150482 530.585022,351.693970 533.946167,328.824493 
	C534.014832,328.357391 534.232056,327.912170 534.373108,327.477844 
	C564.102356,330.933929 589.186523,305.993256 574.668091,275.419708 
	C621.610779,255.994705 670.015625,241.562103 719.803162,229.982071 
	C721.076050,246.783417 719.894836,262.895569 715.629639,278.765625 
	C708.587036,304.970123 695.612610,328.010345 678.030701,348.494019 
	C643.516968,388.703979 599.405396,414.761841 550.758789,433.872314 
	C513.904053,448.350433 475.647430,457.420959 436.344269,462.120392 
	C432.549652,462.574127 428.759033,463.061676 424.520874,463.639740 
z"/>
<path fill="#FEFEFF" opacity="1.000000" stroke="none" 
	d="
M558.940613,279.110229 
	C566.919922,288.808960 566.990112,298.876862 559.379272,306.218994 
	C550.210938,315.063660 535.285706,315.990570 526.641846,308.236786 
	C511.024200,294.227325 495.421875,280.200806 479.792908,266.203949 
	C477.685394,264.316528 475.526489,262.473145 473.272736,260.766022 
	C470.806793,258.898071 467.927734,257.121399 465.316803,260.074066 
	C462.663086,263.075134 465.152008,265.579559 467.020294,267.933167 
	C467.226776,268.193268 467.461395,268.432587 467.696136,268.668427 
	C481.917603,282.956299 496.106049,297.277313 510.379578,311.513000 
	C516.320068,317.437805 521.947266,323.498077 518.997986,332.835022 
	C515.850159,342.800537 507.863464,347.475372 498.493652,349.899872 
	C490.557709,351.953369 483.542206,349.885590 477.491882,343.966888 
	C465.827209,332.555969 453.914429,321.397888 442.043304,310.199860 
	C440.488068,308.732788 438.727905,307.166779 436.775208,306.535095 
	C435.149353,306.009155 432.436707,306.143188 431.433990,307.176758 
	C430.497101,308.142517 430.876953,310.740021 431.249756,312.497925 
	C431.499542,313.675781 432.678680,314.704346 433.561615,315.692780 
	C443.544678,326.868683 453.537445,338.035980 463.557281,349.178894 
	C467.737701,353.827850 472.395294,358.623901 469.696838,365.433960 
	C466.773987,372.810333 460.461304,376.702484 452.776886,377.870209 
	C445.254639,379.013306 438.683228,377.797913 432.897003,371.575165 
	C424.522858,362.569275 415.142670,354.496704 406.149811,346.070587 
	C404.697357,344.709625 403.196838,343.072296 401.413879,342.480194 
	C399.473450,341.835815 397.177795,342.261108 395.037018,342.220032 
	C395.160004,344.480957 394.414764,347.423248 395.559723,348.882080 
	C399.969208,354.500305 404.976959,359.649811 409.773987,364.962952 
	C414.238007,369.907318 418.533264,375.023376 423.254700,379.709290 
	C426.461517,382.892029 425.343506,384.891266 422.210083,386.661987 
	C415.427094,390.495117 408.055634,391.786591 400.531036,389.972443 
	C393.501251,388.277618 386.669189,385.762970 379.300049,383.469025 
	C385.016418,368.493530 384.864410,354.742035 376.486237,341.970825 
	C368.121124,329.219513 355.970032,322.933105 340.159546,322.693390 
	C340.297943,309.118866 337.907104,296.262360 326.053864,287.775299 
	C314.751801,279.682922 302.113983,277.519684 288.698608,281.453827 
	C270.391846,260.139282 251.285522,256.101074 229.482269,268.850311 
	C209.455551,252.543839 194.288162,251.665329 176.721100,265.854950 
	C128.490234,235.759079 73.326241,225.191833 19.270323,210.978912 
	C23.849768,188.701981 32.976482,169.099991 45.337818,150.932709 
	C57.895969,132.476196 73.322639,116.664223 90.417824,102.387108 
	C92.848907,100.356796 94.709000,100.483200 97.480515,101.567780 
	C130.977570,114.676208 165.131683,125.651894 200.536469,132.372955 
	C220.065262,136.080231 239.260956,134.609955 258.164642,128.388809 
	C264.274078,126.378204 270.618866,125.082718 277.431427,124.448540 
	C271.502563,130.879379 265.576721,137.313034 259.643921,143.740250 
	C253.771790,150.101746 247.790405,156.365936 242.041840,162.837067 
	C234.497055,171.330231 235.431015,180.454834 244.553955,187.362701 
	C253.540909,194.167572 264.173004,196.047684 275.045837,196.989944 
	C289.481903,198.240997 302.375122,194.041977 313.903107,185.534882 
	C323.682556,178.318069 333.074524,170.557953 343.046967,163.626694 
	C350.800293,158.237808 358.926300,153.246582 367.346710,148.988266 
	C380.186584,142.494949 393.440338,143.059692 405.419983,150.882812 
	C416.812317,158.322388 427.852142,166.472061 438.215393,175.287155 
	C478.552734,209.598541 518.559448,244.298630 558.940613,279.110229 
z"/>
<path fill="#FEFEFF" opacity="1.000000" stroke="none" 
	d="
M514.236084,126.857376 
	C560.425293,134.115128 603.650818,125.130310 645.435669,106.639145 
	C647.009644,105.942612 649.875793,105.800903 650.978577,106.749977 
	C680.155090,131.859756 703.053284,161.364838 714.338013,198.799423 
	C715.854858,203.831085 716.927429,208.996719 718.108459,213.712280 
	C695.570129,219.930847 673.349792,225.109924 651.778748,232.250107 
	C623.720398,241.537643 596.146667,252.300095 568.454773,262.669098 
	C565.209290,263.884338 563.269592,263.821228 560.584167,261.500854 
	C523.411743,229.382019 486.231689,197.269928 448.794312,165.461166 
	C438.028900,156.314301 426.721832,147.735962 415.164948,139.605026 
	C395.467224,125.746582 374.671112,126.110115 354.649567,138.288361 
	C341.480469,146.298584 329.553284,156.350586 317.070129,165.488510 
	C313.040741,168.438110 309.037811,171.424591 304.978058,174.331818 
	C291.701508,183.839218 277.141144,185.314606 261.701416,181.165054 
	C261.061188,180.992966 260.420227,180.809357 259.801392,180.573883 
	C250.499603,177.034317 249.913727,174.920990 256.821350,167.773300 
	C272.202789,151.857285 287.032074,135.322113 303.326782,120.393158 
	C331.965302,94.154984 366.685242,87.321037 404.224854,92.488693 
	C423.284668,95.112450 441.313477,101.412483 458.724701,109.639259 
	C476.251038,117.920433 494.710205,123.431206 514.236084,126.857376 
z"/>
<path fill="#009EE3" opacity="1.000000" stroke="none" 
	d="
M179.703003,50.670753 
	C213.303894,36.953346 247.798767,27.771767 283.223053,22.349831 
	C300.442078,19.714336 317.866913,18.011829 335.262848,17.055542 
	C354.025085,16.024143 372.903168,15.434627 391.659760,16.261517 
	C462.772186,19.396523 530.984802,34.530804 594.251648,68.258293 
	C608.587952,75.900948 622.128052,85.037247 636.034607,93.486015 
	C635.947083,94.086159 635.859619,94.686302 635.772095,95.286438 
	C627.609863,98.309929 619.527222,101.573273 611.270203,104.310852 
	C588.680542,111.800301 565.510864,115.723961 541.636658,115.105980 
	C513.411865,114.375389 486.868866,107.058907 461.385101,95.205437 
	C433.033295,82.017944 403.376068,74.757370 371.899719,77.131500 
	C345.223389,79.143585 320.871704,87.571938 299.791748,104.515137 
	C298.424896,105.613770 296.636383,106.819221 295.011353,106.867073 
	C279.537720,107.322769 264.801697,111.446587 250.174942,115.882210 
	C231.983963,121.398689 213.677490,121.792038 195.544281,116.742355 
	C167.381241,108.899605 139.428726,100.300453 111.397141,91.987602 
	C110.198326,91.632088 109.101624,90.932228 107.037376,89.959053 
	C130.019577,73.643890 154.061157,61.102596 179.703003,50.670753 
z"/>
<path fill="#FEFEFE" opacity="1.000000" stroke="none" 
	d="
M214.599426,309.600098 
	C199.370361,320.072632 182.160568,309.731689 179.717941,295.786621 
	C177.692291,284.222046 185.169998,272.536621 196.554199,270.093109 
	C208.438995,267.542206 220.207611,274.819824 222.956543,286.495911 
	C223.548157,289.008759 223.845886,291.590759 224.275040,294.117676 
	C227.678818,290.328003 230.642746,286.297943 234.319656,283.083435 
	C242.427353,275.995422 251.942429,274.189148 262.322235,277.006470 
	C272.377441,279.735687 277.288422,286.800995 278.985657,296.665497 
	C279.243256,298.162872 280.037537,300.668610 280.790161,300.747925 
	C282.293549,300.906342 284.229980,300.053558 285.480957,299.010651 
	C294.072510,291.848175 304.382477,291.047333 315.259705,296.911987 
	C323.499542,301.354645 328.020081,310.675385 326.646118,321.089539 
	C326.128204,325.015106 324.802917,328.827942 324.098633,332.737732 
	C323.740906,334.723572 323.944794,336.810608 323.894775,338.851898 
	C325.914307,338.829315 328.162018,339.382996 329.915619,338.688721 
	C339.838348,334.760468 349.144714,335.557892 357.828735,341.789368 
	C368.660248,349.561829 372.599426,363.297119 367.648651,375.511017 
	C362.618256,387.921265 349.596710,395.104706 336.081635,392.925201 
	C323.650818,390.920532 314.060974,380.163971 312.766327,367.090881 
	C312.572479,365.133728 311.300476,363.283356 310.527252,361.383575 
	C308.643951,362.197510 306.410278,362.609100 304.936127,363.892853 
	C297.240387,370.594788 289.057312,370.552521 280.365662,366.267029 
	C271.801910,362.044556 266.158447,356.007538 266.810516,345.656738 
	C267.109192,340.915741 264.953796,339.328278 261.348206,341.806427 
	C251.783585,348.380219 242.449402,348.135864 233.031021,341.770630 
	C222.984589,334.980957 219.895325,325.139923 220.606522,313.566589 
	C220.743515,311.336945 220.285599,309.070709 219.983688,305.369019 
	C217.384293,307.413666 216.142761,308.390228 214.599426,309.600098 
z"/>
<path fill="#FFFFFF" opacity="1.000000" stroke="none" 
	d="
M1472.243652,411.596252 
	C1461.285156,387.570099 1462.054688,364.035309 1473.664551,340.944305 
	C1477.771851,332.775085 1485.695190,329.777130 1494.353027,329.041901 
	C1512.525391,327.498627 1521.657959,336.343567 1527.502319,352.076965 
	C1533.968384,369.484375 1533.072998,387.056030 1526.779053,404.236115 
	C1523.078613,414.336823 1512.703491,423.602661 1499.542114,423.107147 
	C1491.424805,422.801575 1483.424927,422.864044 1476.968262,416.964478 
	C1475.307495,415.447021 1473.938110,413.610840 1472.243652,411.596252 
z"/>
<path fill="#FFFFFF" opacity="1.000000" stroke="none" 
	d="
M1946.765503,109.267258 
	C1954.124634,116.340363 1956.549805,125.460693 1957.779053,134.544769 
	C1959.443359,146.844131 1959.191040,159.326035 1954.984863,171.288498 
	C1948.021362,191.092407 1934.751221,197.194672 1918.447388,195.732681 
	C1899.150024,194.002243 1891.037109,181.743073 1887.079346,166.292633 
	C1883.469971,152.201920 1883.814087,137.831177 1888.179565,124.077690 
	C1896.522827,97.792595 1922.994629,93.457268 1941.881592,104.482132 
	C1943.690552,105.538101 1944.982544,107.479736 1946.765503,109.267258 
z"/>
<path fill="#FFFFFF" opacity="1.000000" stroke="none" 
	d="
M1216.045654,383.269287 
	C1216.296509,395.547394 1212.191895,406.001648 1204.505249,414.577301 
	C1199.996338,419.607635 1193.774536,423.005585 1186.389893,423.016968 
	C1165.484009,423.049194 1153.120117,412.637329 1150.029663,391.925537 
	C1148.001587,378.332428 1147.862549,364.706268 1152.063354,351.450073 
	C1156.362305,337.884552 1169.962769,327.792389 1182.682373,329.097565 
	C1200.010620,330.875671 1208.098022,337.489594 1213.676270,354.825470 
	C1216.035278,362.156677 1216.047363,370.260040 1216.930542,378.034668 
	C1217.105469,379.574768 1216.386475,381.216400 1216.045654,383.269287 
z"/>
<path fill="#FFFFFF" opacity="1.000000" stroke="none" 
	d="
M1785.977295,128.201324 
	C1788.078979,138.358017 1789.645874,147.970261 1788.299438,158.160721 
	C1787.211304,166.395615 1785.475830,174.143341 1781.240479,181.175369 
	C1773.748779,193.613525 1762.134521,197.598068 1748.346069,195.934067 
	C1736.452881,194.498764 1728.884521,187.028580 1724.903564,176.316772 
	C1717.695435,156.921844 1717.448853,137.366470 1726.351074,118.366730 
	C1731.814819,106.705635 1741.797485,100.727814 1754.425171,101.190147 
	C1769.317627,101.735413 1779.028931,109.707306 1784.601440,124.139832 
	C1785.067993,125.348137 1785.501099,126.569374 1785.977295,128.201324 
z"/>
<path fill="#FFFFFF" opacity="1.000000" stroke="none" 
	d="
M1142.768066,107.728592 
	C1158.792480,94.414253 1181.258057,97.851654 1192.677490,110.081551 
	C1198.110107,115.899719 1199.577515,123.058098 1201.264771,130.706512 
	C1178.123535,130.706512 1155.383423,130.706512 1131.897583,130.706512 
	C1133.345581,122.069595 1136.815918,114.549652 1142.768066,107.728592 
z"/>
<path fill="#FFFFFF" opacity="1.000000" stroke="none" 
	d="
M1679.469727,329.211121 
	C1693.654175,333.917694 1699.977051,344.631073 1702.957520,357.855286 
	C1706.494141,373.546448 1706.045532,389.191071 1699.825317,404.118652 
	C1695.042358,415.597046 1686.240234,422.360565 1673.459473,424.140350 
	C1664.431152,425.397614 1656.244019,423.905975 1648.771484,419.139130 
	C1640.340820,413.761047 1636.365479,405.376678 1633.837646,395.894196 
	C1629.839233,380.894287 1630.127075,365.962372 1635.161621,351.537903 
	C1641.810059,332.489044 1657.082031,324.787750 1677.090942,328.935028 
	C1677.735474,329.068634 1678.418579,329.017120 1679.469727,329.211121 
z"/>
<path fill="#FFFFFF" opacity="1.000000" stroke="none" 
	d="
M1609.251465,193.314392 
	C1598.540039,199.346603 1587.885742,202.937546 1576.206909,197.038422 
	C1569.315796,193.557724 1565.677246,184.838654 1567.250854,177.214920 
	C1569.890015,164.429092 1579.927124,161.455505 1590.449585,159.022827 
	C1601.246338,156.526794 1612.084595,154.210571 1622.929810,151.810074 
	C1622.981323,161.646790 1624.404907,172.975906 1618.795532,183.156479 
	C1616.679810,186.996445 1612.677002,189.796722 1609.251465,193.314392 
z"/>
<path fill="#FFFFFF" opacity="1.000000" stroke="none" 
	d="
M1337.166748,388.005066 
	C1347.365967,385.843658 1357.130615,383.686249 1367.492676,381.396851 
	C1366.937866,389.321075 1367.368286,398.204773 1365.495605,406.573090 
	C1362.296997,420.867126 1349.547363,427.128784 1337.092285,428.981110 
	C1331.132568,429.867432 1325.410278,429.826874 1319.840942,426.539703 
	C1312.772949,422.367889 1310.689575,415.730286 1311.226562,408.607178 
	C1311.823608,400.684875 1316.269775,394.628601 1324.242432,391.941223 
	C1328.377686,390.547333 1332.567139,389.314575 1337.166748,388.005066 
z"/>
</svg>