<?xml version="1.0" encoding="utf-8"?>
<!-- Generator: Adobe Illustrator 24.0.3, SVG Export Plug-In . SVG Version: 6.00 Build 0)  -->
<!DOCTYPE svg PUBLIC "-//W3C//DTD SVG 1.1//EN" "http://www.w3.org/Graphics/SVG/1.1/DTD/svg11.dtd" [
	<!ENTITY ns_extend "http://ns.adobe.com/Extensibility/1.0/">
	<!ENTITY ns_ai "http://ns.adobe.com/AdobeIllustrator/10.0/">
	<!ENTITY ns_graphs "http://ns.adobe.com/Graphs/1.0/">
	<!ENTITY ns_vars "http://ns.adobe.com/Variables/1.0/">
	<!ENTITY ns_imrep "http://ns.adobe.com/ImageReplacement/1.0/">
	<!ENTITY ns_sfw "http://ns.adobe.com/SaveForWeb/1.0/">
	<!ENTITY ns_custom "http://ns.adobe.com/GenericCustomNamespace/1.0/">
	<!ENTITY ns_adobe_xpath "http://ns.adobe.com/XPath/1.0/">
]>
<svg version="1.1" id="Layer_1" xmlns:x="&ns_extend;" xmlns:i="&ns_ai;" xmlns:graph="&ns_graphs;"
	 xmlns="http://www.w3.org/2000/svg" xmlns:xlink="http://www.w3.org/1999/xlink" x="0px" y="0px" viewBox="0 0 135.8 135.8"
	 style="enable-background:new 0 0 135.8 135.8;" xml:space="preserve">
<style type="text/css">
	.st0{fill:#970F00;}
	.st1{fill:url(#SVGID_1_);}
	.st2{fill:#B20D0D;}
	.st3{fill:#EF5656;}
	.st4{fill:#FFFFFF;}
</style>
<metadata>
	<sfw  xmlns="&ns_sfw;">
		<slices></slices>
		<sliceSourceBounds  bottomLeftOrigin="true" height="135.8" width="135.8" x="0" y="0"></sliceSourceBounds>
	</sfw>
</metadata>
<path class="st0" d="M0,67.9c0,34.6,27.1,64.5,61.6,67.6c34.5,3.2,66.8-21.1,73.1-55.2c6.3-34.1-15-68.5-48.4-77.8
	C52.9-6.9,16.7,11.3,4.4,43.7C1.5,51.4,0,59.6,0,67.9"/>
<radialGradient id="SVGID_1_" cx="67.9195" cy="70.1377" r="63.1155" gradientTransform="matrix(1 0 0 -1 1.430511e-06 138.0003)" gradientUnits="userSpaceOnUse">
	<stop  offset="0" style="stop-color:#F28888"/>
	<stop  offset="1" style="stop-color:#D82A2A"/>
</radialGradient>
<path class="st1" d="M4.8,67.9c0,34.4,28.7,63.1,63.1,63.1S131,102.3,131,67.9S102.3,4.7,67.9,4.7S4.8,33.5,4.8,67.9"/>
<path class="st2" d="M10.9,43.3c-5.1,29.7,12.7,59.6,41.2,69.3c30.3,10.3,64.3-4.9,77-34.3c-6.1,35.5-42.6,58.8-77.4,49.4
	C15.9,118.1-3.9,77.6,10.9,43.3"/>
<path class="st3" d="M28.5,39.8c8.7,1.8,18.8-10.6,26.3-13.7C69,20.3,86.6,23,99.5,31c13.6,8.5,23.2,24.7,24.7,40.7c0,0,0,0.1,0,0
	c-1-9.7-0.3-18.8-4-28.1C114,28.1,100.8,16,84.9,11.1c-16.4-5-34.4-1.8-48.6,7.8C32,21.9,15.1,37.1,28.5,39.8"/>
<path class="st4" d="M105.4,85.5c-5.6-5.6-11.2-11.2-16.9-16.9c-1.5-1.5,12.3-13.7,14.3-15.7c7.7-7.7,0.4-12.4-5.7-18.4
	c-2.8-2.8-6.8-7.4-10.9-3.3c-3,1.9-5.7,5.7-8.3,8.3c-3,3-6,6-9,9c-0.7,0.7-4.8-4.2-5.5-4.9C59.4,39.5,49.6,25.1,43,31.6
	c-3.9,3.9-17,12.8-10.7,19l17.2,17.2C45,72.5,25.3,86.5,32.4,93.6c3.7,3.7,7.8,9.7,12.5,12.1c5.4,2.7,11.4-6.1,14.5-9.3
	c1.5-1.5,8.5-10.2,10-8.6l14.3,14.3c4.5,4.5,8,4.8,12.6,0.2C99.7,98.9,111,91,105.4,85.5"/>
<path class="st0" d="M47.3,28.9c-4.4,0-8.8,6.2-11.5,9c-3.6,3.6-9,8-3.9,13.2c3.5,3.5,7,7.1,10.6,10.6c2.6,2.6,7.5,4.9,4.5,7.9
	C42.3,74.3,24.6,86.7,32,94l10.1,10.1c4.6,4.6,8.6,1.9,12.3-1.8l11.9-11.9c3.6-3.6,4.2-0.7,7.6,2.7c3.7,3.7,7.5,7.5,11.2,11.2
	c4.9,4.9,8.9,1.2,12.6-2.5c2.9-2.9,7.9-6.3,9.5-10.2c2.2-5.3-4.8-10.1-7.9-13.2C95.9,75,92.4,71.5,89,68.1c-0.4-0.4,8.4-8.8,9.2-9.6
	c3.6-3.6,13.4-10.5,7.7-16.3c-2.7-4.1-7.6-7.6-11.1-11.1c-7.6-7.6-21.2,11.8-26.1,16.7L58.2,37.3C55.5,34.6,51.6,29,47.3,28.9
	 M43.9,104.2c-4.6-4.6-17.1-12.7-10.4-19.4c2.2-2.2,17.6-16.1,16.2-17.5L39.4,56.8C37,54.5,31,50.3,31,46.5c0-3.9,6.2-8.2,8.7-10.6
	c3-3,6.9-8.3,11.3-3.9c1.7,1.7,17.6,17.8,17.8,17.6c5.6-5.6,11.3-13.6,17.9-17.9c4.4-4.4,9.2,2.5,12,5.2c2.8,2.8,10.8,8.4,6.3,13
	c-4.3,6.6-12.3,12.3-17.9,17.9c0,0-0.1,0.1-0.1,0.1c5.6,5.6,13.7,11.4,18,18c4.6,4.6-3.4,10.2-6.3,13c-3.1,3.1-7.6,9.6-12.3,4.9
	c-2.3-2.3-17-18.5-18.4-17.1C64.4,90.5,49.7,110,43.9,104.2"/>
</svg>
